<?xml version="1.0" encoding="UTF-8"?>
<svg version="1.1" xmlns="http://www.w3.org/2000/svg" width="1024" height="1024">
<path d="M0 0 C1.77040318 -0.00514789 3.54080123 -0.0124357 5.31118774 -0.02168274 C10.08591826 -0.04009015 14.86008551 -0.02732762 19.63479209 -0.00759244 C24.64738782 0.00887622 29.65995018 -0.00002986 34.67256165 -0.00511169 C43.08437021 -0.00962225 51.49595564 0.00617577 59.90771484 0.03417969 C69.61793891 0.0662581 79.32776142 0.0662003 89.03801411 0.04896492 C98.40329606 0.03307781 107.76843148 0.03984543 117.13370705 0.05690193 C121.10918923 0.063755 125.08455335 0.06275804 129.0600338 0.05535698 C133.74292442 0.04767113 138.42536019 0.05989508 143.10817337 0.08720589 C144.82176298 0.09406553 146.53539527 0.09421378 148.24898338 0.08699036 C164.78312621 0.02534574 164.78312621 0.02534574 172.1652832 4.63110352 C172.97481445 5.10032227 173.7843457 5.56954102 174.6184082 6.05297852 C181.87240973 11.41463181 185.54725798 18.03321946 188.1652832 26.63110352 C188.47953278 29.31283682 188.67421901 31.78105295 188.7121582 34.45922852 C188.74325432 35.56235886 188.74325432 35.56235886 188.77497864 36.68777466 C188.83706193 39.08547731 188.87719062 41.48290876 188.9152832 43.88110352 C188.95150703 45.55379564 188.98788628 47.22648441 189.02441406 48.89916992 C189.35296285 66.15552504 188.85240646 83.38913992 188.1652832 100.63110352 C189.24124756 100.77064453 190.31721191 100.91018555 191.42578125 101.05395508 C194.17695725 101.47856695 196.42895667 101.89984859 198.99731445 102.86547852 C199.64514893 103.10685547 200.2929834 103.34823242 200.96044922 103.59692383 C201.62616943 103.85570312 202.29188965 104.11448242 202.9777832 104.38110352 C203.68281982 104.65277344 204.38785645 104.92444336 205.11425781 105.2043457 C239.32260287 118.58800278 266.50412179 146.301478 281.4777832 179.63110352 C285.0191393 187.76641464 287.86004253 196.06239883 290.1652832 204.63110352 C290.34857178 205.30729736 290.53186035 205.98349121 290.72070312 206.68017578 C292.2770362 212.9300338 292.54858428 219.02546109 292.7277832 225.44360352 C292.93918818 232.96661966 293.15694496 240.48858882 293.42208862 248.00993347 C294.32907247 274.99398437 294.31321917 301.97291487 294.29960871 328.96968102 C294.29807426 332.98804555 294.29817879 337.00640621 294.29909897 341.02477074 C294.2992522 341.70202574 294.29940543 342.37928075 294.29956331 343.07705864 C294.29988323 344.45546864 294.30020745 345.83387864 294.3005359 347.21228864 C294.30336486 360.04326608 294.30014966 372.8742363 294.29473554 385.70521256 C294.29031397 396.51295142 294.291059 407.32067932 294.2956543 418.12841797 C294.34114307 528.31580054 294.34114307 528.31580054 293.7199707 575.92407227 C293.70525844 577.0740886 293.70525844 577.0740886 293.69024897 578.24733758 C293.58260067 586.60934136 293.45334088 594.97047749 293.28301513 603.33145016 C293.19297229 607.84476554 293.13043838 612.3578588 293.07929456 616.87177509 C293.03791893 620.18915517 292.98038509 623.50614586 292.91982865 626.82322562 C292.89427507 628.39668806 292.87494103 629.97026764 292.86275077 631.54389036 C292.74943957 645.30133587 291.00884601 658.79203262 284.2902832 671.06860352 C283.76494995 672.06694214 283.76494995 672.06694214 283.22900391 673.08544922 C272.79459454 692.62043882 256.51646296 707.57381798 240.97229004 723.01971436 C238.80181223 725.17931279 236.63699624 727.34454163 234.47225475 729.5098877 C232.36978831 731.61208135 230.26472007 733.71165319 228.15877724 735.81036377 C227.16114151 736.80484408 226.16408676 737.79990759 225.16765404 738.79559326 C220.32017258 743.63544722 215.47243621 748.30239331 210.1652832 752.63110352 C208.81371646 754.28301843 207.47566254 755.94633008 206.1652832 757.63110352 C189.71263425 765.85742799 155.02129974 759.77631253 136.78438759 759.76542902 C131.11931946 759.76286112 125.45425278 759.76525536 119.78918457 759.76681519 C110.27457382 759.76862532 100.75997088 759.76626235 91.24536133 759.76147461 C80.33463172 759.75604681 69.42392085 759.75778856 58.5131917 759.76330101 C49.06175342 759.76788041 39.6103207 759.768459 30.15888166 759.76586235 C24.5511949 759.76432421 18.94351685 759.7640362 13.33583069 759.76739883 C2.26848217 759.77279351 -8.7981659 759.75945155 -19.86527109 759.68017709 C-24.19713988 759.6493475 -28.52827717 759.62823507 -32.86026001 759.63942719 C-36.66144671 759.64908004 -40.46100555 759.62725147 -44.26187992 759.57841468 C-46.2375243 759.56103736 -48.21337835 759.57742855 -50.18901825 759.5953083 C-57.2507586 759.46275047 -61.25435901 758.61275479 -66.2374649 753.44592476 C-67.02810459 752.54758824 -67.02810459 752.54758824 -67.8347168 751.63110352 C-68.92926611 750.54588574 -70.02863555 749.46547842 -71.13549805 748.39282227 C-72.14209185 747.37072252 -73.14604676 746.34601654 -74.1472168 745.31860352 C-76.9161668 742.47981871 -79.51432284 739.84469948 -82.8347168 737.63110352 C-83.82423931 736.53343646 -84.78101469 735.40568612 -85.7097168 734.25610352 C-87.49913477 732.11495719 -89.07385898 730.44101614 -91.2722168 728.69360352 C-93.50262671 726.89839554 -95.07418524 725.2439117 -96.8972168 723.06860352 C-100.4012414 718.95252221 -104.31775183 715.38750876 -108.33837891 711.79370117 C-112.32540915 708.19360853 -115.87696268 704.35025457 -119.3112793 700.21313477 C-119.81401367 699.69106445 -120.31674805 699.16899414 -120.8347168 698.63110352 C-121.4947168 698.63110352 -122.1547168 698.63110352 -122.8347168 698.63110352 C-123.87821519 696.99132033 -124.8701433 695.3185204 -125.8347168 693.63110352 C-127.04947882 691.97460985 -128.27965582 690.32934808 -129.5222168 688.69360352 C-137.50940261 677.77925384 -145.79606289 665.24956609 -146.65893555 651.44360352 C-146.73496173 649.53162513 -146.73496173 649.53162513 -147.8347168 647.63110352 C-147.93106151 645.27471774 -147.96670263 642.94803925 -147.95776463 640.59145164 C-147.95891847 639.8547014 -147.96007231 639.11795116 -147.96126112 638.35887516 C-147.96392967 635.86466538 -147.95940367 633.37051882 -147.95497131 630.87631226 C-147.95540697 629.08029783 -147.95628176 627.28428347 -147.95756048 625.48826945 C-147.9598066 620.53309549 -147.95578256 615.57794297 -147.95078242 610.62277174 C-147.94647978 605.28669705 -147.94792421 599.95062366 -147.94868469 594.61454773 C-147.94921005 585.36283454 -147.94606206 576.11112838 -147.94044685 566.85941696 C-147.9323334 553.48285446 -147.92971679 540.10629537 -147.92845886 526.72973068 C-147.9262681 505.0292098 -147.91960736 483.32869267 -147.91015625 461.62817383 C-147.90098276 440.54321308 -147.89390162 419.45825335 -147.88964844 398.37329102 C-147.88938571 397.07447339 -147.88912299 395.77565576 -147.88885231 394.43748002 C-147.88754731 387.9219503 -147.88628359 381.40642057 -147.8850404 374.89089084 C-147.87466703 320.80429247 -147.85704806 266.71769817 -147.8347168 212.63110352 C-147.1747168 212.63110352 -146.5147168 212.63110352 -145.8347168 212.63110352 C-146.1647168 209.66110352 -146.4947168 206.69110352 -146.8347168 203.63110352 C-146.1747168 203.63110352 -145.5147168 203.63110352 -144.8347168 203.63110352 C-144.6490918 202.33172852 -144.4634668 201.03235352 -144.2722168 199.69360352 C-142.95185259 192.95685474 -140.1868757 186.85970132 -137.4909668 180.58422852 C-136.09216571 177.31720885 -134.90155176 174.02363869 -133.8347168 170.63110352 C-133.1747168 170.63110352 -132.5147168 170.63110352 -131.8347168 170.63110352 C-131.55756836 169.88989258 -131.28041992 169.14868164 -130.99487305 168.38500977 C-127.3224128 159.66755361 -120.55133301 152.07309845 -114.8347168 144.63110352 C-114.12573242 143.68750977 -113.41674805 142.74391602 -112.6862793 141.77172852 C-112.07526367 141.06532227 -111.46424805 140.35891602 -110.8347168 139.63110352 C-110.1747168 139.63110352 -109.5147168 139.63110352 -108.8347168 139.63110352 C-108.6078418 139.05360352 -108.3809668 138.47610352 -108.1472168 137.88110352 C-106.48710041 135.0351897 -104.44283722 133.63268431 -101.8347168 131.63110352 C-101.1128418 130.88860352 -100.3909668 130.14610352 -99.6472168 129.38110352 C-89.35098053 119.3136725 -77.39893177 112.356559 -64.2097168 106.81860352 C-63.55414795 106.54072998 -62.8985791 106.26285645 -62.22314453 105.9765625 C-58.07177448 104.30246689 -53.9082799 103.10073739 -49.55981445 102.03466797 C-48.48575348 101.77015335 -47.4116925 101.50563873 -46.30508423 101.23310852 C-45.48986298 101.03444687 -44.67464172 100.83578522 -43.8347168 100.63110352 C-43.83551239 99.70561707 -43.83630798 98.78013062 -43.83712769 97.82659912 C-43.83934523 89.05923511 -43.8126828 80.29251993 -43.7544384 71.52534103 C-43.72549699 67.019115 -43.70730948 62.5134047 -43.71459961 58.00708008 C-43.72123846 53.64946603 -43.69845217 49.29286699 -43.65616226 44.93546295 C-43.64511141 43.28193022 -43.64425763 41.62829354 -43.65429306 39.97475433 C-43.7185673 27.81513688 -42.04585688 18.22807857 -33.7097168 8.69360352 C-23.8180772 0.16735224 -12.36629676 -0.09202928 0 0 Z M8.1652832 43.63110352 C8.1652832 57.49110352 8.1652832 71.35110352 8.1652832 85.63110352 C33.55509492 86.94286187 58.88999742 86.54718422 84.30255127 86.23620605 C90.27692509 86.16451398 96.25137939 86.10030859 102.22583008 86.03540039 C113.87240594 85.9078016 125.51885392 85.77144495 137.1652832 85.63110352 C137.1652832 71.77110352 137.1652832 57.91110352 137.1652832 43.63110352 C94.5952832 43.63110352 52.0252832 43.63110352 8.1652832 43.63110352 Z M72.1652832 249.63110352 C66.47994763 253.89510519 62.47063777 259.01081308 58.1652832 264.63110352 C57.19544516 265.88517533 56.2253783 267.1390702 55.25512695 268.39282227 C44.12703538 282.81908198 33.06718013 297.32817191 23.1652832 312.63110352 C22.18300292 314.12251128 21.19985442 315.61334741 20.21606445 317.10375977 C13.04773599 328.00061014 6.19292016 339.05220399 -0.43920898 350.28295898 C-1.41049616 351.91729069 -2.39102785 353.54614899 -3.37866211 355.1706543 C-6.37864312 360.10777126 -9.18373845 365.06125636 -11.7097168 370.25610352 C-12.39688999 371.6533997 -13.08439918 373.05053069 -13.7722168 374.44750977 C-14.11510742 375.14634277 -14.45799805 375.84517578 -14.8112793 376.56518555 C-15.78087807 378.52242429 -16.77127395 380.46708606 -17.7722168 382.40844727 C-26.41453963 399.23213991 -34.05666503 416.61052697 -39.8347168 434.63110352 C-40.22119385 435.83162354 -40.22119385 435.83162354 -40.61547852 437.05639648 C-44.87913389 450.43917958 -48.22188543 463.65323167 -49.8347168 477.63110352 C-50.1647168 478.62110352 -50.4947168 479.61110352 -50.8347168 480.63110352 C-50.89272182 484.19116205 -50.85639162 487.73595898 -50.7956543 491.29516602 C-50.75405702 495.26077306 -51.03412407 498.73702047 -51.8347168 502.63110352 C-52.01185978 530.7614095 -41.62886746 558.75988095 -22.8347168 579.63110352 C-22.16311523 580.44450195 -21.49151367 581.25790039 -20.79956055 582.09594727 C-2.19063508 604.11361049 26.26277368 618.02937165 54.7355957 621.31469727 C88.61884165 624.097341 123.55198627 618.33244026 150.66796875 596.44726562 C153.24859739 594.25421673 155.70788076 591.96239792 158.1652832 589.63110352 C159.04313477 588.83188477 159.92098633 588.03266602 160.82543945 587.20922852 C182.45245937 566.75214013 193.88745693 536.78864005 195.07543945 507.34985352 C195.10508789 506.12266602 195.13473633 504.89547852 195.1652832 503.63110352 C195.20524414 502.56891602 195.24520508 501.50672852 195.28637695 500.41235352 C196.51053851 443.38082684 166.22336254 385.89891257 137.1652832 338.63110352 C136.58133789 337.65399414 135.99739258 336.67688477 135.39575195 335.67016602 C124.58676595 317.7258363 112.61447572 300.46905764 100.1652832 283.63110352 C99.63918457 282.91422363 99.11308594 282.19734375 98.57104492 281.45874023 C93.23610783 274.19272227 87.90563595 267.03585276 81.7824707 260.40454102 C80.37401973 258.86000782 79.07126276 257.22039295 77.7902832 255.56860352 C76.9859082 254.60954102 76.9859082 254.60954102 76.1652832 253.63110352 C75.5052832 253.63110352 74.8452832 253.63110352 74.1652832 253.63110352 C73.1752832 251.65110352 73.1752832 251.65110352 72.1652832 249.63110352 Z " fill="#000000" transform="translate(439.834716796875,133.368896484375)"/>
<path d="M0 0 C3.07317414 0.31213204 4.59149217 0.56977331 6.75415039 2.84741211 C7.28000732 3.64928955 7.80586426 4.45116699 8.34765625 5.27734375 C8.94763428 6.17549805 9.5476123 7.07365234 10.16577148 7.99902344 C10.79169189 8.9687207 11.4176123 9.93841797 12.0625 10.9375 C12.71355713 11.92137695 13.36461426 12.90525391 14.03540039 13.91894531 C15.37607508 15.94653813 16.71092315 17.97799512 18.04003906 20.01318359 C19.88487298 22.82455605 21.75843729 25.61338299 23.6484375 28.39453125 C24.74489062 30.0129538 25.84125005 31.63143983 26.9375 33.25 C27.45127197 34.00531006 27.96504395 34.76062012 28.49438477 35.53881836 C32 40.7720144 32 40.7720144 32 43 C32.66 43 33.32 43 34 43 C34.35336426 43.65194336 34.70672852 44.30388672 35.07080078 44.97558594 C38.36781325 51.04140178 41.71376396 57.07721521 45.09936523 63.09399414 C61.18202696 91.67925032 61.18202696 91.67925032 67.34765625 106.1640625 C68.83441444 109.6513914 70.43496142 113.07582792 72.0625 116.5 C78.39280465 130.18487609 83.07428733 144.45855284 87 159 C87.21462891 159.78294434 87.42925781 160.56588867 87.65039062 161.37255859 C92.40790948 179.36428665 92.42939483 198.61165374 90 217 C89.34 217 88.68 217 88 217 C87.938125 217.886875 87.87625 218.77375 87.8125 219.6875 C84.91809257 238.69156985 71.09499568 256.01559721 56.0078125 267.22265625 C53.38701526 268.93234531 50.74596038 270.50141594 48 272 C47.32710937 272.38414062 46.65421875 272.76828125 45.9609375 273.1640625 C32.58084343 280.37719963 18.23567377 282.36529011 3.25 282.25 C2.02023437 282.24540771 0.79046875 282.24081543 -0.4765625 282.23608398 C-10.49394625 282.1361484 -20.27905015 281.59381114 -30 279 C-30 278.34 -30 277.68 -30 277 C-30.8559375 276.89300781 -31.711875 276.78601563 -32.59375 276.67578125 C-47.97004234 273.62520949 -63.03025554 260.42393177 -72 248 C-72 247.34 -72 246.68 -72 246 C-72.66 246 -73.32 246 -74 246 C-75.00484204 244.04414675 -76.00373805 242.08523763 -77 240.125 C-77.8353125 238.48917969 -77.8353125 238.48917969 -78.6875 236.8203125 C-80 234 -80 234 -80 232 C-80.66 232 -81.32 232 -82 232 C-82.33 229.03 -82.66 226.06 -83 223 C-83.66 223 -84.32 223 -85 223 C-85.19916016 221.64455078 -85.19916016 221.64455078 -85.40234375 220.26171875 C-85.57894531 219.08222656 -85.75554687 217.90273438 -85.9375 216.6875 C-86.11152344 215.51574219 -86.28554688 214.34398437 -86.46484375 213.13671875 C-86.92093031 209.98358597 -86.92093031 209.98358597 -88 207 C-89.07214715 190.63829504 -88.45948935 174.78026092 -84 159 C-83.5832442 157.41408592 -83.16657977 155.82814783 -82.75 154.2421875 C-77.65768455 135.57843246 -69.57274408 118.03274035 -61.25 100.625 C-60.45420532 98.95908813 -60.45420532 98.95908813 -59.64233398 97.25952148 C-56.82102962 91.45090188 -53.80231281 85.88586391 -50.4140625 80.39038086 C-49.03762254 78.06359846 -47.84278928 75.71301471 -46.671875 73.27734375 C-43.32805003 66.43855291 -39.24661953 60.0316613 -35.25 53.5625 C-34.07919887 51.6645875 -32.90967167 49.76594175 -31.74383545 47.86497498 C-30.69728444 46.15877838 -29.64613554 44.45540454 -28.59472656 42.75219727 C-26.90340827 40.04691222 -26.90340827 40.04691222 -26 37 C-25.34 37 -24.68 37 -24 37 C-23.62488281 35.94425781 -23.62488281 35.94425781 -23.2421875 34.8671875 C-21.85120231 31.65654874 -20.10816538 29.00620254 -18.125 26.125 C-15.21164847 21.83442775 -12.4824869 17.55122599 -10 13 C-9.34 13 -8.68 13 -8 13 C-7.73445313 12.43796875 -7.46890625 11.8759375 -7.1953125 11.296875 C-5.90668966 8.82069778 -4.43869639 6.56155118 -2.875 4.25 C-2.33617187 3.45078125 -1.79734375 2.6515625 -1.2421875 1.828125 C-0.83226562 1.22484375 -0.42234375 0.6215625 0 0 Z " fill="#000000" transform="translate(510,439)"/>
<path d="M0 0 C2 1 2 1 2 1 Z " fill="#D82228" transform="translate(524,132)"/>
<path d="" fill="#D72328" transform="translate(0,0)"/>
<path d="" fill="#EE2429" transform="translate(0,0)"/>
<path d="" fill="#EB2528" transform="translate(0,0)"/>
<path d="" fill="#DA1E26" transform="translate(0,0)"/>
<path d="" fill="#EE2328" transform="translate(0,0)"/>
<path d="" fill="#EE252A" transform="translate(0,0)"/>
<path d="" fill="#F0242B" transform="translate(0,0)"/>
<path d="" fill="#F0242B" transform="translate(0,0)"/>
<path d="" fill="#F2232A" transform="translate(0,0)"/>
<path d="" fill="#F0242B" transform="translate(0,0)"/>
<path d="" fill="#EC2329" transform="translate(0,0)"/>
<path d="" fill="#ED222B" transform="translate(0,0)"/>
<path d="" fill="#EE242A" transform="translate(0,0)"/>
<path d="" fill="#EA2429" transform="translate(0,0)"/>
<path d="" fill="#E62427" transform="translate(0,0)"/>
<path d="" fill="#E52328" transform="translate(0,0)"/>
<path d="" fill="#E22328" transform="translate(0,0)"/>
<path d="" fill="#E32328" transform="translate(0,0)"/>
<path d="" fill="#E12228" transform="translate(0,0)"/>
<path d="" fill="#DD2227" transform="translate(0,0)"/>
<path d="" fill="#D82228" transform="translate(0,0)"/>
<path d="" fill="#D42328" transform="translate(0,0)"/>
<path d="" fill="#D82428" transform="translate(0,0)"/>
<path d="" fill="#D92328" transform="translate(0,0)"/>
<path d="" fill="#DA2128" transform="translate(0,0)"/>
<path d="" fill="#D82228" transform="translate(0,0)"/>
<path d="" fill="#D82427" transform="translate(0,0)"/>
<path d="" fill="#D52427" transform="translate(0,0)"/>
<path d="" fill="#D72225" transform="translate(0,0)"/>
<path d="" fill="#D42427" transform="translate(0,0)"/>
</svg>
