<svg width="602" height="577" xmlns="http://www.w3.org/2000/svg" xmlns:xlink="http://www.w3.org/1999/xlink" xml:space="preserve" overflow="hidden"><g><path d="M37.2258 572.864C36.0884 571.726 35.4679 570.175 35.7781 569.348 36.0884 568.417 35.4679 567.59 34.2271 567.177 30.8147 566.143 10.3405 545.565 10.3405 543.187 10.3405 542.049 10.5473 540.912 10.7541 540.705 10.9609 540.498 11.478 425.822 11.8916 286.018L12.6154 31.7453 22.9559 17.9925 33.2964 4.1362 299.978 4.1362 566.556 4.1362 577.931 17.2686C589.098 29.9875 590.443 32.2624 588.478 35.9849 587.547 37.6394 584.445 354.576 583.928 489.106L583.721 544.427 580.723 550.528C577 558.18 570.796 564.488 563.764 567.797 560.869 569.141 558.491 570.899 558.387 571.623 558.387 572.347 557.146 573.381 555.699 573.898 554.044 574.518 460.566 574.932 296.152 574.932 41.6722 574.932 39.2939 574.932 37.2258 572.864ZM496.965 444.538C499.55 443.608 500.377 439.782 498.412 437.817 497.585 436.99 499.239 390.251 503.582 286.225 506.995 203.398 509.787 134.323 509.787 132.565L509.787 129.463 298.22 128.739C165.345 128.222 86.3432 128.326 85.7228 128.946 84.3785 130.29 84.4819 294.291 85.8262 296.876 87.3772 299.668 92.0305 299.461 92.7543 296.669 93.1679 295.118 111.264 282.606 149.42 257.375 187.99 231.834 205.776 219.425 206.707 217.564 207.637 215.496 208.465 214.979 210.739 215.289L213.531 215.599 213.325 255.721C213.118 277.746 213.221 295.738 213.531 295.738 213.842 295.738 240.727 277.953 273.299 256.238 327.484 220.046 332.861 216.634 337.307 216.323L342.271 215.91 342.477 257.375 342.788 298.841 348.992 295.118C352.404 293.05 378.979 275.574 407.933 256.341 457.05 223.768 461.083 221.287 465.219 221.287L469.769 221.287 469.045 287.259C468.632 323.451 467.908 368.949 467.391 388.286 466.977 407.623 466.874 428.304 467.184 434.301 467.908 444.642 468.011 445.055 470.493 445.882 473.698 446.813 493.656 445.882 496.965 444.538Z" fill="#4EA72E" transform="matrix(1.0003 0 0 -1 0 577)"/><path d="M238.866 174.237 238.866 161.312 269.887 161.312 300.909 161.312 300.909 174.237 300.909 187.163 269.887 187.163 238.866 187.163 238.866 174.237Z" fill="#4EA72E" transform="matrix(1.0003 0 0 -1 0 577)"/><path d="M372.258 173.203 372.258 160.278 403.28 160.278 434.301 160.278 434.301 173.203 434.301 186.129 403.28 186.129 372.258 186.129 372.258 173.203Z" fill="#4EA72E" transform="matrix(1.0003 0 0 -1 0 577)"/><path d="M114.78 172.169 114.78 159.244 145.801 159.244 176.823 159.244 176.823 172.169 176.823 185.095 145.801 185.095 114.78 185.095 114.78 172.169Z" fill="#4EA72E" transform="matrix(1.0003 0 0 -1 0 577)"/></g></svg>